# xmcd
#
# Track frame offsets: 
#        150
#        24741
#        54240
#        75936
#        95058
#        125883
#        145369
#        165240
#        193977
#        207344
#        228185
#        255279
#        277032
#        299092
#
# Disc length: 4153 seconds
#
# Revision: 0
# Processed by: cddbd v1.5.2PL0 Copyright (c) Steve Scherf et al.
# Submitted via: ExactAudioCopy v0.99pb5
#
DISCID=cd10370e
DTITLE=Varios Artist - Nezabravimi pesni za masa I i II
DYEAR=1900
DGENRE=Folklore
TTITLE0=Belite manastiri
TTITLE1=Gradil Ilia kilia
TTITLE2=Dragieva chesma
TTITLE3=Selo Brenica
TTITLE4=Celuvkata na Ana
TTITLE5=Cheren vlak se kompozira
TTITLE6=Staria Ahmed
TTITLE7=Imate li vino
TTITLE8=Az iskam da te zabravia
TTITLE9=Oi, ti cherno more
TTITLE10=Az sym Goshko hubaveca
TTITLE11=Stani mi stani
TTITLE12=Tango posledno
TTITLE13=Az jiveia za lubov
EXTD=
EXTT0=
EXTT1=
EXTT2=
EXTT3=
EXTT4=
EXTT5=
EXTT6=
EXTT7=
EXTT8=
EXTT9=
EXTT10=
EXTT11=
EXTT12=
EXTT13=
PLAYORDER=
